{
    "asset" : {
        "generator" : "Khronos glTF Blender I/O v1.7.33",
        "version" : "2.0"
    },
    "scene" : 0,
    "scenes" : [
        {
            "name" : "Scene",
            "nodes" : [
                0,
                1,
                2,
                3,
                4,
                5,
                6,
                7
            ]
        }
    ],
    "nodes" : [
        {
            "mesh" : 0,
            "name" : "BezierCurve.003"
        },
        {
            "mesh" : 1,
            "name" : "BezierCurve.004"
        },
        {
            "mesh" : 2,
            "name" : "BezierCurve.011"
        },
        {
            "mesh" : 3,
            "name" : "Icosphere.003"
        },
        {
            "mesh" : 4,
            "name" : "Icosphere.004"
        },
        {
            "mesh" : 5,
            "name" : "Sphere.004"
        },
        {
            "mesh" : 6,
            "name" : "Sphere.005"
        },
        {
            "mesh" : 7,
            "name" : "Sphere.006"
        }
    ],
    "materials" : [
        {
            "doubleSided" : true,
            "emissiveFactor" : [
                1,
                1,
                1
            ],
            "emissiveTexture" : {
                "index" : 0
            },
            "name" : "lambert2.001",
            "normalTexture" : {
                "index" : 1
            },
            "pbrMetallicRoughness" : {
                "baseColorTexture" : {
                    "index" : 2
                },
                "metallicRoughnessTexture" : {
                    "index" : 3
                }
            }
        },
        {
            "doubleSided" : true,
            "name" : "Material.020",
            "normalTexture" : {
                "index" : 4,
                "scale" : 0.699999988079071
            },
            "pbrMetallicRoughness" : {
                "baseColorTexture" : {
                    "index" : 5
                },
                "metallicFactor" : 0,
                "metallicRoughnessTexture" : {
                    "index" : 6
                }
            }
        },
        {
            "doubleSided" : true,
            "name" : "Material.003",
            "pbrMetallicRoughness" : {
                "baseColorFactor" : [
                    0.036889463663101196,
                    0.07036011666059494,
                    0.262250691652298,
                    1
                ],
                "metallicFactor" : 0,
                "roughnessFactor" : 0.5
            }
        },
        {
            "doubleSided" : true,
            "name" : "Material.022",
            "pbrMetallicRoughness" : {
                "baseColorFactor" : [
                    0.327778160572052,
                    0.5647117495536804,
                    0.8549928665161133,
                    1
                ],
                "metallicFactor" : 0,
                "roughnessFactor" : 0.5
            }
        },
        {
            "alphaMode" : "BLEND",
            "doubleSided" : true,
            "emissiveFactor" : [
                1,
                1,
                1
            ],
            "emissiveTexture" : {
                "index" : 7
            },
            "name" : "Crystal",
            "normalTexture" : {
                "index" : 8
            },
            "occlusionTexture" : {
                "index" : 9
            },
            "pbrMetallicRoughness" : {
                "baseColorTexture" : {
                    "index" : 10
                },
                "metallicRoughnessTexture" : {
                    "index" : 9
                }
            }
        }
    ],
    "meshes" : [
        {
            "name" : "BezierCurve.015",
            "primitives" : [
                {
                    "attributes" : {
                        "POSITION" : 0,
                        "NORMAL" : 1,
                        "TEXCOORD_0" : 2
                    },
                    "indices" : 3,
                    "material" : 0
                }
            ]
        },
        {
            "name" : "BezierCurve.002",
            "primitives" : [
                {
                    "attributes" : {
                        "POSITION" : 4,
                        "NORMAL" : 5,
                        "TEXCOORD_0" : 6
                    },
                    "indices" : 7,
                    "material" : 0
                }
            ]
        },
        {
            "name" : "BezierCurve.023",
            "primitives" : [
                {
                    "attributes" : {
                        "POSITION" : 8,
                        "NORMAL" : 9,
                        "TEXCOORD_0" : 10
                    },
                    "indices" : 7,
                    "material" : 0
                }
            ]
        },
        {
            "name" : "Icosphere.096",
            "primitives" : [
                {
                    "attributes" : {
                        "POSITION" : 11,
                        "NORMAL" : 12,
                        "TEXCOORD_0" : 13
                    },
                    "indices" : 14,
                    "material" : 1
                }
            ]
        },
        {
            "name" : "Icosphere.086",
            "primitives" : [
                {
                    "attributes" : {
                        "POSITION" : 15,
                        "NORMAL" : 16,
                        "TEXCOORD_0" : 17
                    },
                    "indices" : 14,
                    "material" : 1
                }
            ]
        },
        {
            "name" : "Sphere.007",
            "primitives" : [
                {
                    "attributes" : {
                        "POSITION" : 18,
                        "NORMAL" : 19,
                        "TEXCOORD_0" : 20
                    },
                    "indices" : 21,
                    "material" : 0
                }
            ]
        },
        {
            "name" : "Sphere.008",
            "primitives" : [
                {
                    "attributes" : {
                        "POSITION" : 22,
                        "NORMAL" : 23,
                        "TEXCOORD_0" : 24
                    },
                    "indices" : 25,
                    "material" : 0
                },
                {
                    "attributes" : {
                        "POSITION" : 26,
                        "NORMAL" : 27,
                        "TEXCOORD_0" : 28
                    },
                    "indices" : 29,
                    "material" : 2
                },
                {
                    "attributes" : {
                        "POSITION" : 30,
                        "NORMAL" : 31,
                        "TEXCOORD_0" : 32
                    },
                    "indices" : 33,
                    "material" : 3
                }
            ]
        },
        {
            "name" : "Sphere.009",
            "primitives" : [
                {
                    "attributes" : {
                        "POSITION" : 34,
                        "NORMAL" : 35,
                        "TEXCOORD_0" : 36
                    },
                    "indices" : 37,
                    "material" : 4
                }
            ]
        }
    ],
    "textures" : [
        {
            "sampler" : 0,
            "source" : 0
        },
        {
            "sampler" : 0,
            "source" : 1
        },
        {
            "sampler" : 0,
            "source" : 2
        },
        {
            "sampler" : 0,
            "source" : 3
        },
        {
            "sampler" : 0,
            "source" : 4
        },
        {
            "sampler" : 0,
            "source" : 5
        },
        {
            "sampler" : 0,
            "source" : 6
        },
        {
            "sampler" : 0,
            "source" : 7
        },
        {
            "sampler" : 0,
            "source" : 7
        },
        {
            "sampler" : 0,
            "source" : 8
        },
        {
            "sampler" : 0,
            "source" : 9
        }
    ],
    "images" : [
        {
            "mimeType" : "image/png",
            "name" : "Image_2",
            "uri" : "Textura.Fase.03/Image_2.png"
        },
        {
            "mimeType" : "image/png",
            "name" : "Image_3",
            "uri" : "Textura.Fase.03/Image_3.png"
        },
        {
            "mimeType" : "image/png",
            "name" : "Image_0",
            "uri" : "Textura.Fase.03/Image_0.png"
        },
        {
            "mimeType" : "image/png",
            "name" : "Image_1",
            "uri" : "Textura.Fase.03/Image_1.png"
        },
        {
            "mimeType" : "image/png",
            "name" : "TexturesCom_Gore_1K_normal",
            "uri" : "Textura.Fase.03/TexturesCom_Gore_1K_normal.png"
        },
        {
            "mimeType" : "image/png",
            "name" : "TexturesCom_Gore_1K_albedo",
            "uri" : "Textura.Fase.03/TexturesCom_Gore_1K_albedo.png"
        },
        {
            "mimeType" : "image/png",
            "name" : "TexturesCom_Gore_1K_roughness",
            "uri" : "Textura.Fase.03/TexturesCom_Gore_1K_roughness.png"
        },
        {
            "mimeType" : "image/jpeg",
            "name" : "Image_2",
            "uri" : "Textura.Fase.03/Image_2-1.jpg"
        },
        {
            "mimeType" : "image/png",
            "name" : "Image_1",
            "uri" : "Textura.Fase.03/Image_1-1.png"
        },
        {
            "mimeType" : "image/png",
            "name" : "Image_0",
            "uri" : "Textura.Fase.03/Image_0-1.png"
        }
    ],
    "accessors" : [
        {
            "bufferView" : 0,
            "componentType" : 5126,
            "count" : 1391,
            "max" : [
                45.40873718261719,
                9.766036987304688,
                7.203927993774414
            ],
            "min" : [
                -32.567039489746094,
                -11.086807250976562,
                -11.634008407592773
            ],
            "type" : "VEC3"
        },
        {
            "bufferView" : 1,
            "componentType" : 5126,
            "count" : 1391,
            "type" : "VEC3"
        },
        {
            "bufferView" : 2,
            "componentType" : 5126,
            "count" : 1391,
            "type" : "VEC2"
        },
        {
            "bufferView" : 3,
            "componentType" : 5123,
            "count" : 6696,
            "type" : "SCALAR"
        },
        {
            "bufferView" : 4,
            "componentType" : 5126,
            "count" : 741,
            "max" : [
                -16.447357177734375,
                5.669797420501709,
                6.591973304748535
            ],
            "min" : [
                -29.773344039916992,
                -1.7308645248413086,
                0.9287540912628174
            ],
            "type" : "VEC3"
        },
        {
            "bufferView" : 5,
            "componentType" : 5126,
            "count" : 741,
            "type" : "VEC3"
        },
        {
            "bufferView" : 6,
            "componentType" : 5126,
            "count" : 741,
            "type" : "VEC2"
        },
        {
            "bufferView" : 7,
            "componentType" : 5123,
            "count" : 4032,
            "type" : "SCALAR"
        },
        {
            "bufferView" : 8,
            "componentType" : 5126,
            "count" : 741,
            "max" : [
                -7.0279221534729,
                5.395938396453857,
                7.138525009155273
            ],
            "min" : [
                -20.35689926147461,
                -0.7801995277404785,
                0.07998490333557129
            ],
            "type" : "VEC3"
        },
        {
            "bufferView" : 9,
            "componentType" : 5126,
            "count" : 741,
            "type" : "VEC3"
        },
        {
            "bufferView" : 10,
            "componentType" : 5126,
            "count" : 741,
            "type" : "VEC2"
        },
        {
            "bufferView" : 11,
            "componentType" : 5126,
            "count" : 229,
            "max" : [
                -17.29685401916504,
                7.5497822761535645,
                7.357786178588867
            ],
            "min" : [
                -29.84635353088379,
                -4.357994556427002,
                0.3073697090148926
            ],
            "type" : "VEC3"
        },
        {
            "bufferView" : 12,
            "componentType" : 5126,
            "count" : 229,
            "type" : "VEC3"
        },
        {
            "bufferView" : 13,
            "componentType" : 5126,
            "count" : 229,
            "type" : "VEC2"
        },
        {
            "bufferView" : 14,
            "componentType" : 5123,
            "count" : 720,
            "type" : "SCALAR"
        },
        {
            "bufferView" : 15,
            "componentType" : 5126,
            "count" : 229,
            "max" : [
                -6.732853889465332,
                5.979644298553467,
                8.797977447509766
            ],
            "min" : [
                -19.330078125,
                -1.7780179977416992,
                -2.693939447402954
            ],
            "type" : "VEC3"
        },
        {
            "bufferView" : 16,
            "componentType" : 5126,
            "count" : 229,
            "type" : "VEC3"
        },
        {
            "bufferView" : 17,
            "componentType" : 5126,
            "count" : 229,
            "type" : "VEC2"
        },
        {
            "bufferView" : 18,
            "componentType" : 5126,
            "count" : 544,
            "max" : [
                -0.3562180995941162,
                9.25567626953125,
                7.306907653808594
            ],
            "min" : [
                -36.73407745361328,
                -8.99067497253418,
                -10.192511558532715
            ],
            "type" : "VEC3"
        },
        {
            "bufferView" : 19,
            "componentType" : 5126,
            "count" : 544,
            "type" : "VEC3"
        },
        {
            "bufferView" : 20,
            "componentType" : 5126,
            "count" : 544,
            "type" : "VEC2"
        },
        {
            "bufferView" : 21,
            "componentType" : 5123,
            "count" : 2928,
            "type" : "SCALAR"
        },
        {
            "bufferView" : 22,
            "componentType" : 5126,
            "count" : 33,
            "max" : [
                -4.330389499664307,
                6.125918865203857,
                4.182927131652832
            ],
            "min" : [
                -32.9595947265625,
                -6.086176872253418,
                -6.857973098754883
            ],
            "type" : "VEC3"
        },
        {
            "bufferView" : 23,
            "componentType" : 5126,
            "count" : 33,
            "type" : "VEC3"
        },
        {
            "bufferView" : 24,
            "componentType" : 5126,
            "count" : 33,
            "type" : "VEC2"
        },
        {
            "bufferView" : 25,
            "componentType" : 5123,
            "count" : 96,
            "type" : "SCALAR"
        },
        {
            "bufferView" : 26,
            "componentType" : 5126,
            "count" : 64,
            "max" : [
                -3.4297280311584473,
                6.4868903160095215,
                4.504673004150391
            ],
            "min" : [
                -33.8582763671875,
                -6.49273681640625,
                -7.230145454406738
            ],
            "type" : "VEC3"
        },
        {
            "bufferView" : 27,
            "componentType" : 5126,
            "count" : 64,
            "type" : "VEC3"
        },
        {
            "bufferView" : 28,
            "componentType" : 5126,
            "count" : 64,
            "type" : "VEC2"
        },
        {
            "bufferView" : 29,
            "componentType" : 5123,
            "count" : 192,
            "type" : "SCALAR"
        },
        {
            "bufferView" : 30,
            "componentType" : 5126,
            "count" : 64,
            "max" : [
                -1.6521079540252686,
                7.199328899383545,
                5.139700889587402
            ],
            "min" : [
                -35.631996154785156,
                -7.295158386230469,
                -7.964696884155273
            ],
            "type" : "VEC3"
        },
        {
            "bufferView" : 31,
            "componentType" : 5126,
            "count" : 64,
            "type" : "VEC3"
        },
        {
            "bufferView" : 32,
            "componentType" : 5126,
            "count" : 64,
            "type" : "VEC2"
        },
        {
            "bufferView" : 33,
            "componentType" : 5123,
            "count" : 192,
            "type" : "SCALAR"
        },
        {
            "bufferView" : 34,
            "componentType" : 5126,
            "count" : 151,
            "max" : [
                -0.3562180995941162,
                11.949283599853516,
                10.747452735900879
            ],
            "min" : [
                -36.73407745361328,
                -6.2889862060546875,
                -6.761916160583496
            ],
            "type" : "VEC3"
        },
        {
            "bufferView" : 35,
            "componentType" : 5126,
            "count" : 151,
            "type" : "VEC3"
        },
        {
            "bufferView" : 36,
            "componentType" : 5126,
            "count" : 151,
            "type" : "VEC2"
        },
        {
            "bufferView" : 37,
            "componentType" : 5123,
            "count" : 720,
            "type" : "SCALAR"
        }
    ],
    "bufferViews" : [
        {
            "buffer" : 0,
            "byteLength" : 16692,
            "byteOffset" : 0
        },
        {
            "buffer" : 0,
            "byteLength" : 16692,
            "byteOffset" : 16692
        },
        {
            "buffer" : 0,
            "byteLength" : 11128,
            "byteOffset" : 33384
        },
        {
            "buffer" : 0,
            "byteLength" : 13392,
            "byteOffset" : 44512
        },
        {
            "buffer" : 0,
            "byteLength" : 8892,
            "byteOffset" : 57904
        },
        {
            "buffer" : 0,
            "byteLength" : 8892,
            "byteOffset" : 66796
        },
        {
            "buffer" : 0,
            "byteLength" : 5928,
            "byteOffset" : 75688
        },
        {
            "buffer" : 0,
            "byteLength" : 8064,
            "byteOffset" : 81616
        },
        {
            "buffer" : 0,
            "byteLength" : 8892,
            "byteOffset" : 89680
        },
        {
            "buffer" : 0,
            "byteLength" : 8892,
            "byteOffset" : 98572
        },
        {
            "buffer" : 0,
            "byteLength" : 5928,
            "byteOffset" : 107464
        },
        {
            "buffer" : 0,
            "byteLength" : 2748,
            "byteOffset" : 113392
        },
        {
            "buffer" : 0,
            "byteLength" : 2748,
            "byteOffset" : 116140
        },
        {
            "buffer" : 0,
            "byteLength" : 1832,
            "byteOffset" : 118888
        },
        {
            "buffer" : 0,
            "byteLength" : 1440,
            "byteOffset" : 120720
        },
        {
            "buffer" : 0,
            "byteLength" : 2748,
            "byteOffset" : 122160
        },
        {
            "buffer" : 0,
            "byteLength" : 2748,
            "byteOffset" : 124908
        },
        {
            "buffer" : 0,
            "byteLength" : 1832,
            "byteOffset" : 127656
        },
        {
            "buffer" : 0,
            "byteLength" : 6528,
            "byteOffset" : 129488
        },
        {
            "buffer" : 0,
            "byteLength" : 6528,
            "byteOffset" : 136016
        },
        {
            "buffer" : 0,
            "byteLength" : 4352,
            "byteOffset" : 142544
        },
        {
            "buffer" : 0,
            "byteLength" : 5856,
            "byteOffset" : 146896
        },
        {
            "buffer" : 0,
            "byteLength" : 396,
            "byteOffset" : 152752
        },
        {
            "buffer" : 0,
            "byteLength" : 396,
            "byteOffset" : 153148
        },
        {
            "buffer" : 0,
            "byteLength" : 264,
            "byteOffset" : 153544
        },
        {
            "buffer" : 0,
            "byteLength" : 192,
            "byteOffset" : 153808
        },
        {
            "buffer" : 0,
            "byteLength" : 768,
            "byteOffset" : 154000
        },
        {
            "buffer" : 0,
            "byteLength" : 768,
            "byteOffset" : 154768
        },
        {
            "buffer" : 0,
            "byteLength" : 512,
            "byteOffset" : 155536
        },
        {
            "buffer" : 0,
            "byteLength" : 384,
            "byteOffset" : 156048
        },
        {
            "buffer" : 0,
            "byteLength" : 768,
            "byteOffset" : 156432
        },
        {
            "buffer" : 0,
            "byteLength" : 768,
            "byteOffset" : 157200
        },
        {
            "buffer" : 0,
            "byteLength" : 512,
            "byteOffset" : 157968
        },
        {
            "buffer" : 0,
            "byteLength" : 384,
            "byteOffset" : 158480
        },
        {
            "buffer" : 0,
            "byteLength" : 1812,
            "byteOffset" : 158864
        },
        {
            "buffer" : 0,
            "byteLength" : 1812,
            "byteOffset" : 160676
        },
        {
            "buffer" : 0,
            "byteLength" : 1208,
            "byteOffset" : 162488
        },
        {
            "buffer" : 0,
            "byteLength" : 1440,
            "byteOffset" : 163696
        }
    ],
    "samplers" : [
        {
            "magFilter" : 9729,
            "minFilter" : 9987
        }
    ],
    "buffers" : [
        {
            "byteLength" : 165136,
            "uri" : "NASA-Fase03.bin"
        }
    ]
}
