{
    "asset" : {
        "generator" : "Khronos glTF Blender I/O v1.7.33",
        "version" : "2.0"
    },
    "scene" : 0,
    "scenes" : [
        {
            "name" : "Scene",
            "nodes" : [
                0,
                1,
                2,
                3,
                4
            ]
        }
    ],
    "nodes" : [
        {
            "mesh" : 0,
            "name" : "BezierCurve.002"
        },
        {
            "mesh" : 1,
            "name" : "Icosphere.002"
        },
        {
            "mesh" : 2,
            "name" : "Sphere.002"
        },
        {
            "mesh" : 3,
            "name" : "Sphere.003"
        },
        {
            "mesh" : 4,
            "name" : "Sphere.018"
        }
    ],
    "materials" : [
        {
            "doubleSided" : true,
            "emissiveFactor" : [
                1,
                1,
                1
            ],
            "emissiveTexture" : {
                "index" : 0
            },
            "name" : "lambert2.001",
            "normalTexture" : {
                "index" : 1
            },
            "pbrMetallicRoughness" : {
                "baseColorTexture" : {
                    "index" : 2
                },
                "metallicRoughnessTexture" : {
                    "index" : 3
                }
            }
        },
        {
            "doubleSided" : true,
            "name" : "Material.020",
            "normalTexture" : {
                "index" : 4,
                "scale" : 0.699999988079071
            },
            "pbrMetallicRoughness" : {
                "baseColorTexture" : {
                    "index" : 5
                },
                "metallicFactor" : 0,
                "metallicRoughnessTexture" : {
                    "index" : 6
                }
            }
        },
        {
            "doubleSided" : true,
            "name" : "Material.019",
            "pbrMetallicRoughness" : {
                "baseColorFactor" : [
                    0.015019078738987446,
                    0.8000000715255737,
                    0.030307933688163757,
                    1
                ],
                "metallicFactor" : 0,
                "roughnessFactor" : 0.5
            }
        },
        {
            "doubleSided" : true,
            "name" : "Material.003",
            "pbrMetallicRoughness" : {
                "baseColorFactor" : [
                    0.036889463663101196,
                    0.07036011666059494,
                    0.262250691652298,
                    1
                ],
                "metallicFactor" : 0,
                "roughnessFactor" : 0.5
            }
        },
        {
            "doubleSided" : true,
            "name" : "Material.016",
            "pbrMetallicRoughness" : {
                "baseColorFactor" : [
                    0.327778160572052,
                    0.5647117495536804,
                    0.8549928665161133,
                    1
                ],
                "metallicFactor" : 0,
                "roughnessFactor" : 0.5
            }
        },
        {
            "doubleSided" : true,
            "name" : "Material.017",
            "pbrMetallicRoughness" : {
                "baseColorFactor" : [
                    0.036889463663101196,
                    0.07036011666059494,
                    0.262250691652298,
                    1
                ],
                "metallicFactor" : 0,
                "roughnessFactor" : 0.5
            }
        },
        {
            "alphaMode" : "BLEND",
            "doubleSided" : true,
            "emissiveFactor" : [
                1,
                1,
                1
            ],
            "emissiveTexture" : {
                "index" : 7
            },
            "name" : "Crystal",
            "normalTexture" : {
                "index" : 8
            },
            "occlusionTexture" : {
                "index" : 9
            },
            "pbrMetallicRoughness" : {
                "baseColorTexture" : {
                    "index" : 10
                },
                "metallicRoughnessTexture" : {
                    "index" : 9
                }
            }
        }
    ],
    "meshes" : [
        {
            "name" : "BezierCurve.018",
            "primitives" : [
                {
                    "attributes" : {
                        "POSITION" : 0,
                        "NORMAL" : 1,
                        "TEXCOORD_0" : 2
                    },
                    "indices" : 3,
                    "material" : 0
                }
            ]
        },
        {
            "name" : "Icosphere.002",
            "primitives" : [
                {
                    "attributes" : {
                        "POSITION" : 4,
                        "NORMAL" : 5,
                        "TEXCOORD_0" : 6
                    },
                    "indices" : 7,
                    "material" : 1
                }
            ]
        },
        {
            "name" : "Sphere.015",
            "primitives" : [
                {
                    "attributes" : {
                        "POSITION" : 8,
                        "NORMAL" : 9,
                        "TEXCOORD_0" : 10
                    },
                    "indices" : 11,
                    "material" : 2
                }
            ]
        },
        {
            "name" : "Sphere.016",
            "primitives" : [
                {
                    "attributes" : {
                        "POSITION" : 12,
                        "NORMAL" : 13,
                        "TEXCOORD_0" : 14
                    },
                    "indices" : 15,
                    "material" : 0
                },
                {
                    "attributes" : {
                        "POSITION" : 16,
                        "NORMAL" : 17,
                        "TEXCOORD_0" : 18
                    },
                    "indices" : 19,
                    "material" : 3
                },
                {
                    "attributes" : {
                        "POSITION" : 20,
                        "NORMAL" : 21,
                        "TEXCOORD_0" : 22
                    },
                    "indices" : 23,
                    "material" : 4
                },
                {
                    "attributes" : {
                        "POSITION" : 24,
                        "NORMAL" : 25,
                        "TEXCOORD_0" : 26
                    },
                    "indices" : 27,
                    "material" : 5
                }
            ]
        },
        {
            "name" : "Sphere.017",
            "primitives" : [
                {
                    "attributes" : {
                        "POSITION" : 28,
                        "NORMAL" : 29,
                        "TEXCOORD_0" : 30
                    },
                    "indices" : 31,
                    "material" : 6
                }
            ]
        }
    ],
    "textures" : [
        {
            "sampler" : 0,
            "source" : 0
        },
        {
            "sampler" : 0,
            "source" : 1
        },
        {
            "sampler" : 0,
            "source" : 2
        },
        {
            "sampler" : 0,
            "source" : 3
        },
        {
            "sampler" : 0,
            "source" : 4
        },
        {
            "sampler" : 0,
            "source" : 5
        },
        {
            "sampler" : 0,
            "source" : 6
        },
        {
            "sampler" : 0,
            "source" : 7
        },
        {
            "sampler" : 0,
            "source" : 7
        },
        {
            "sampler" : 0,
            "source" : 8
        },
        {
            "sampler" : 0,
            "source" : 9
        }
    ],
    "images" : [
        {
            "mimeType" : "image/png",
            "name" : "Image_2",
            "uri" : "Textura.Fase.02/Image_2.png"
        },
        {
            "mimeType" : "image/png",
            "name" : "Image_3",
            "uri" : "Textura.Fase.02/Image_3.png"
        },
        {
            "mimeType" : "image/png",
            "name" : "Image_0",
            "uri" : "Textura.Fase.02/Image_0.png"
        },
        {
            "mimeType" : "image/png",
            "name" : "Image_1",
            "uri" : "Textura.Fase.02/Image_1.png"
        },
        {
            "mimeType" : "image/png",
            "name" : "TexturesCom_Gore_1K_normal",
            "uri" : "Textura.Fase.02/TexturesCom_Gore_1K_normal.png"
        },
        {
            "mimeType" : "image/png",
            "name" : "TexturesCom_Gore_1K_albedo",
            "uri" : "Textura.Fase.02/TexturesCom_Gore_1K_albedo.png"
        },
        {
            "mimeType" : "image/png",
            "name" : "TexturesCom_Gore_1K_roughness",
            "uri" : "Textura.Fase.02/TexturesCom_Gore_1K_roughness.png"
        },
        {
            "mimeType" : "image/jpeg",
            "name" : "Image_2",
            "uri" : "Textura.Fase.02/Image_2-1.jpg"
        },
        {
            "mimeType" : "image/png",
            "name" : "Image_1",
            "uri" : "Textura.Fase.02/Image_1-1.png"
        },
        {
            "mimeType" : "image/png",
            "name" : "Image_0",
            "uri" : "Textura.Fase.02/Image_0-1.png"
        }
    ],
    "accessors" : [
        {
            "bufferView" : 0,
            "componentType" : 5126,
            "count" : 715,
            "max" : [
                6.564581871032715,
                8.656936645507812,
                2.8461763858795166
            ],
            "min" : [
                -6.466405391693115,
                -3.8716554641723633,
                -8.68567180633545
            ],
            "type" : "VEC3"
        },
        {
            "bufferView" : 1,
            "componentType" : 5126,
            "count" : 715,
            "type" : "VEC3"
        },
        {
            "bufferView" : 2,
            "componentType" : 5126,
            "count" : 715,
            "type" : "VEC2"
        },
        {
            "bufferView" : 3,
            "componentType" : 5123,
            "count" : 3888,
            "type" : "SCALAR"
        },
        {
            "bufferView" : 4,
            "componentType" : 5126,
            "count" : 229,
            "max" : [
                6.539901256561279,
                8.181112289428711,
                -0.838484525680542
            ],
            "min" : [
                -6.349379062652588,
                -3.8146095275878906,
                -7.426993370056152
            ],
            "type" : "VEC3"
        },
        {
            "bufferView" : 5,
            "componentType" : 5126,
            "count" : 229,
            "type" : "VEC3"
        },
        {
            "bufferView" : 6,
            "componentType" : 5126,
            "count" : 229,
            "type" : "VEC2"
        },
        {
            "bufferView" : 7,
            "componentType" : 5123,
            "count" : 720,
            "type" : "SCALAR"
        },
        {
            "bufferView" : 8,
            "componentType" : 5126,
            "count" : 272,
            "max" : [
                9.365113258361816,
                11.347600936889648,
                4.146949768066406
            ],
            "min" : [
                -8.649811744689941,
                -8.220970153808594,
                -5.02712869644165
            ],
            "type" : "VEC3"
        },
        {
            "bufferView" : 9,
            "componentType" : 5126,
            "count" : 272,
            "type" : "VEC3"
        },
        {
            "bufferView" : 10,
            "componentType" : 5126,
            "count" : 272,
            "type" : "VEC2"
        },
        {
            "bufferView" : 11,
            "componentType" : 5123,
            "count" : 768,
            "type" : "SCALAR"
        },
        {
            "bufferView" : 12,
            "componentType" : 5126,
            "count" : 457,
            "max" : [
                18.704050064086914,
                20.30583953857422,
                17.054065704345703
            ],
            "min" : [
                -18.49371910095215,
                -16.7694149017334,
                -20.692047119140625
            ],
            "type" : "VEC3"
        },
        {
            "bufferView" : 13,
            "componentType" : 5126,
            "count" : 457,
            "type" : "VEC3"
        },
        {
            "bufferView" : 14,
            "componentType" : 5126,
            "count" : 457,
            "type" : "VEC2"
        },
        {
            "bufferView" : 15,
            "componentType" : 5123,
            "count" : 2160,
            "type" : "SCALAR"
        },
        {
            "bufferView" : 16,
            "componentType" : 5126,
            "count" : 68,
            "max" : [
                13.637713432312012,
                16.6470947265625,
                13.255066871643066
            ],
            "min" : [
                -6.606159210205078,
                -13.31419563293457,
                -2.542184829711914
            ],
            "type" : "VEC3"
        },
        {
            "bufferView" : 17,
            "componentType" : 5126,
            "count" : 68,
            "type" : "VEC3"
        },
        {
            "bufferView" : 18,
            "componentType" : 5126,
            "count" : 68,
            "type" : "VEC2"
        },
        {
            "bufferView" : 19,
            "componentType" : 5123,
            "count" : 192,
            "type" : "SCALAR"
        },
        {
            "bufferView" : 20,
            "componentType" : 5126,
            "count" : 68,
            "max" : [
                15.546669006347656,
                18.68767547607422,
                15.38364315032959
            ],
            "min" : [
                -7.384020805358887,
                -15.250153541564941,
                -2.5107827186584473
            ],
            "type" : "VEC3"
        },
        {
            "bufferView" : 21,
            "componentType" : 5126,
            "count" : 68,
            "type" : "VEC3"
        },
        {
            "bufferView" : 22,
            "componentType" : 5126,
            "count" : 68,
            "type" : "VEC2"
        },
        {
            "bufferView" : 23,
            "componentType" : 5123,
            "count" : 192,
            "type" : "SCALAR"
        },
        {
            "bufferView" : 24,
            "componentType" : 5126,
            "count" : 68,
            "max" : [
                17.044740676879883,
                20.289043426513672,
                17.054065704345703
            ],
            "min" : [
                -7.994458198547363,
                -16.7694149017334,
                -2.4746875762939453
            ],
            "type" : "VEC3"
        },
        {
            "bufferView" : 25,
            "componentType" : 5126,
            "count" : 68,
            "type" : "VEC3"
        },
        {
            "bufferView" : 26,
            "componentType" : 5126,
            "count" : 68,
            "type" : "VEC2"
        },
        {
            "bufferView" : 27,
            "componentType" : 5123,
            "count" : 192,
            "type" : "SCALAR"
        },
        {
            "bufferView" : 28,
            "componentType" : 5126,
            "count" : 81,
            "max" : [
                17.044740676879883,
                20.289043426513672,
                20.095169067382812
            ],
            "min" : [
                -7.994458198547363,
                -16.852746963500977,
                -2.4463613033294678
            ],
            "type" : "VEC3"
        },
        {
            "bufferView" : 29,
            "componentType" : 5126,
            "count" : 81,
            "type" : "VEC3"
        },
        {
            "bufferView" : 30,
            "componentType" : 5126,
            "count" : 81,
            "type" : "VEC2"
        },
        {
            "bufferView" : 31,
            "componentType" : 5123,
            "count" : 360,
            "type" : "SCALAR"
        }
    ],
    "bufferViews" : [
        {
            "buffer" : 0,
            "byteLength" : 8580,
            "byteOffset" : 0
        },
        {
            "buffer" : 0,
            "byteLength" : 8580,
            "byteOffset" : 8580
        },
        {
            "buffer" : 0,
            "byteLength" : 5720,
            "byteOffset" : 17160
        },
        {
            "buffer" : 0,
            "byteLength" : 7776,
            "byteOffset" : 22880
        },
        {
            "buffer" : 0,
            "byteLength" : 2748,
            "byteOffset" : 30656
        },
        {
            "buffer" : 0,
            "byteLength" : 2748,
            "byteOffset" : 33404
        },
        {
            "buffer" : 0,
            "byteLength" : 1832,
            "byteOffset" : 36152
        },
        {
            "buffer" : 0,
            "byteLength" : 1440,
            "byteOffset" : 37984
        },
        {
            "buffer" : 0,
            "byteLength" : 3264,
            "byteOffset" : 39424
        },
        {
            "buffer" : 0,
            "byteLength" : 3264,
            "byteOffset" : 42688
        },
        {
            "buffer" : 0,
            "byteLength" : 2176,
            "byteOffset" : 45952
        },
        {
            "buffer" : 0,
            "byteLength" : 1536,
            "byteOffset" : 48128
        },
        {
            "buffer" : 0,
            "byteLength" : 5484,
            "byteOffset" : 49664
        },
        {
            "buffer" : 0,
            "byteLength" : 5484,
            "byteOffset" : 55148
        },
        {
            "buffer" : 0,
            "byteLength" : 3656,
            "byteOffset" : 60632
        },
        {
            "buffer" : 0,
            "byteLength" : 4320,
            "byteOffset" : 64288
        },
        {
            "buffer" : 0,
            "byteLength" : 816,
            "byteOffset" : 68608
        },
        {
            "buffer" : 0,
            "byteLength" : 816,
            "byteOffset" : 69424
        },
        {
            "buffer" : 0,
            "byteLength" : 544,
            "byteOffset" : 70240
        },
        {
            "buffer" : 0,
            "byteLength" : 384,
            "byteOffset" : 70784
        },
        {
            "buffer" : 0,
            "byteLength" : 816,
            "byteOffset" : 71168
        },
        {
            "buffer" : 0,
            "byteLength" : 816,
            "byteOffset" : 71984
        },
        {
            "buffer" : 0,
            "byteLength" : 544,
            "byteOffset" : 72800
        },
        {
            "buffer" : 0,
            "byteLength" : 384,
            "byteOffset" : 73344
        },
        {
            "buffer" : 0,
            "byteLength" : 816,
            "byteOffset" : 73728
        },
        {
            "buffer" : 0,
            "byteLength" : 816,
            "byteOffset" : 74544
        },
        {
            "buffer" : 0,
            "byteLength" : 544,
            "byteOffset" : 75360
        },
        {
            "buffer" : 0,
            "byteLength" : 384,
            "byteOffset" : 75904
        },
        {
            "buffer" : 0,
            "byteLength" : 972,
            "byteOffset" : 76288
        },
        {
            "buffer" : 0,
            "byteLength" : 972,
            "byteOffset" : 77260
        },
        {
            "buffer" : 0,
            "byteLength" : 648,
            "byteOffset" : 78232
        },
        {
            "buffer" : 0,
            "byteLength" : 720,
            "byteOffset" : 78880
        }
    ],
    "samplers" : [
        {
            "magFilter" : 9729,
            "minFilter" : 9987
        }
    ],
    "buffers" : [
        {
            "byteLength" : 79600,
            "uri" : "NASA-Fase02.bin"
        }
    ]
}
